PathFileType	4	(X/Y/Z)	Walk10.trc
DataRate	CameraRate	NumFrames	NumMarkers	Units	OrigDataRate	OrigDataStartFrame	OrigNumFrames
200.000000	200.000000	6	59	mm	200.000000	351	589
Frame#	Times		CLAV		RASI		RACR1		RUA1		RFA1		RWRU		LACR1		LFA1		LCAR		RTH3		RTH2		LTH4		LLFC		LTB1		LTB3		STRN		LTB4		LASI		RElbow		RTH1		RLFC		LTH2		LTH3		LToe		LTH1		LWRR		RBack		C7		RCAR		LTB2		LMT1		RTH4		LFHD		RWRR		LMMAL		T10		LMT5		RFHD		LLMAL		RBHD		RPSI		LPSI		LUA1		RTB2		LBHD		RTB4		LElbow		RTB1		RMT1		RElbowM		RTB3		RToe		RCAL		LElbowM		LCAL		LWRU		RMMAL		RLMAL		RMT5
			X1	Y1	Z1	X2	Y2	Z2	X3	Y3	Z3	X4	Y4	Z4	X5	Y5	Z5	X6	Y6	Z6	X7	Y7	Z7	X8	Y8	Z8	X9	Y9	Z9	X10	Y10	Z10	X11	Y11	Z11	X12	Y12	Z12	X13	Y13	Z13	X14	Y14	Z14	X15	Y15	Z15	X16	Y16	Z16	X17	Y17	Z17	X18	Y18	Z18	X19	Y19	Z19	X20	Y20	Z20	X21	Y21	Z21	X22	Y22	Z22	X23	Y23	Z23	X24	Y24	Z24	X25	Y25	Z25	X26	Y26	Z26	X27	Y27	Z27	X28	Y28	Z28	X29	Y29	Z29	X30	Y30	Z30	X31	Y31	Z31	X32	Y32	Z32	X33	Y33	Z33	X34	Y34	Z34	X35	Y35	Z35	X36	Y36	Z36	X37	Y37	Z37	X38	Y38	Z38	X39	Y39	Z39	X40	Y40	Z40	X41	Y41	Z41	X42	Y42	Z42	X43	Y43	Z43	X44	Y44	Z44	X45	Y45	Z45	X46	Y46	Z46	X47	Y47	Z47	X48	Y48	Z48	X49	Y49	Z49	X50	Y50	Z50	X51	Y51	Z51	X52	Y52	Z52	X53	Y53	Z53	X54	Y54	Z54	X55	Y55	Z55	X56	Y56	Z56	X57	Y57	Z57	X58	Y58	Z58	X59	Y59	Z59

351	1.755	-204.87	1347.1	-66.135	-174.07	958.54	83.085	-256.89	1356.7	108.44	-301.33	1148	167.93	-291.52	899.45	203.24	-334.59	794.82	220.56	-267.87	1363.8	-233.82	-189.18	928.34	-299.07	-132.41	780.39	-293.08	-153.5	590.84	103.97	-128.98	710.38	100.88	-290.96	636.97	-188.46	-299.69	441.62	-153.82	-299.05	341.03	-71.093	-367.72	166.1	-70.229	-130.15	1123.2	-64.094	-331.68	251.14	-74.287	-182.12	939.67	-186	-335.04	1045.2	188.17	-228.52	762.06	137.95	-129.69	496.88	94.169	-218.42	641.76	-162.15	-287.49	550.36	-168.89	-245.15	28.512	-106.95	-291.01	732.21	-209.45	-150.46	820.95	-251.42	-374.65	1318.7	33.654	-330.03	1423.8	-60.659	-294.65	747.33	218.74	-347.72	257.52	-144.38	-292.98	38.047	-77.618	-190.7	676.15	120.96	-159.28	1588.7	-88.312	-281.69	791.68	168.72	-420.63	76.152	-37.297	-361.28	1139.4	-59.244	-331.38	22.291	-156.39	-155.63	1589.8	-15.185	-435.61	66.675	-119.36	-328.26	1552.5	13.368	-389.49	984.11	17.489	-394.06	980.08	-96.471	-266.51	1157	-287.83	-136.77	290.37	97.532	-328.41	1561.7	-113.8	-113.5	282.09	31.129	-269.36	1036.6	-305.01	-94.723	372.87	31.123	-33.426	57.648	61.889	-348.02	1025.3	104.9	-131.27	192.3	30.806	-4.5294	50.142	100.09	-227.3	57.729	19.855	-301.09	1018.9	-243.86	-490.01	37.522	-66.198	-187.97	807.1	-311.25	-156.16	105.01	1.609	-190.88	91.144	75.102	-89.131	32.921	119.3
352	1.76	-199.43	1346.4	-65.807	-168.42	957.5	83.148	-251.44	1355.8	108.82	-296.37	1147.1	168.23	-287.45	898.52	203.78	-331.06	794.08	221.11	-262.52	1363.2	-233.45	-181.42	928.66	-299.21	-122.76	781.53	-292.84	-148.17	590.19	104.41	-123.65	709.7	100.95	-286.74	636.23	-188.2	-296.51	440.87	-153.54	-296.63	340.24	-70.832	-366.75	165.87	-70.062	-124.53	1122.4	-64.008	-329.99	250.61	-74.065	-177.15	938.5	-185.92	-330.25	1044.4	188.4	-222.94	761.52	138.5	-124.55	495.63	94.873	-214.22	640.74	-161.8	-283.64	549.59	-168.62	-245.07	28.399	-107.11	-286.42	731.47	-209.1	-141.16	822.01	-251.26	-369.2	1317.7	33.949	-324.63	1423	-60.195	-291.43	746.33	219.32	-345.89	257.11	-144.19	-292.95	38.026	-77.567	-185.24	675.54	121.57	-153.87	1587.9	-87.767	-278.11	790.63	169.34	-420.28	76.348	-37.164	-355.72	1138.5	-58.948	-331.39	22.3	-156.33	-150.2	1589	-14.636	-435.38	66.996	-119.3	-322.83	1551.7	13.947	-383.79	983.42	17.926	-388.62	979.38	-96.009	-260.79	1156.6	-287.86	-125.42	288.64	98.018	-323.02	1561	-113.22	-101.76	281.16	31.689	-262.79	1036.1	-305.15	-86.114	372.52	31.706	-14.12	59.223	62.588	-343.04	1024.4	105.13	-116.42	190.84	31.29	14.927	52.514	100.82	-207.86	53.183	19.968	-294.23	1018.2	-243.92	-489.91	38.108	-66.089	-178.76	807.46	-310.85	-138.24	102.79	1.9554	-172.65	87.702	75.368	-69.204	32.784	119.96
353	1.765	-193.97	1345.6	-65.456	-162.76	956.36	83.243	-245.97	1354.8	109.22	-291.35	1146.2	168.54	-283.3	897.57	204.34	-327.44	793.33	221.68	-257.16	1362.6	-233.07	-173.7	928.96	-299.33	-113.19	782.66	-292.61	-143.01	589.4	104.91	-118.43	708.85	101.02	-282.52	635.49	-187.94	-293.31	440.13	-153.26	-294.18	339.43	-70.591	-365.76	165.65	-69.911	-118.88	1121.5	-63.913	-328.28	250.07	-73.861	-172.19	937.32	-185.87	-325.41	1043.6	188.65	-217.41	760.9	139.05	-119.54	494.27	95.612	-210.01	639.72	-161.49	-279.79	548.82	-168.37	-244.99	28.288	-107.26	-281.84	730.73	-208.75	-131.91	823.05	-251.11	-363.71	1316.8	34.267	-319.2	1422.3	-59.71	-288.1	745.33	219.92	-344.05	256.7	-144.02	-292.91	38.008	-77.519	-179.89	674.82	122.21	-148.47	1587.2	-87.203	-274.43	789.57	169.97	-419.92	76.575	-37.038	-350.15	1137.7	-58.612	-331.4	22.308	-156.26	-144.78	1588.2	-14.069	-435.14	67.337	-119.24	-317.4	1550.9	14.548	-378.08	982.68	18.399	-383.16	978.66	-95.509	-255.1	1156.1	-287.84	-114.17	287.01	98.516	-317.63	1560.2	-112.63	-90.155	280.35	32.26	-256.23	1035.6	-305.23	-77.651	372.18	32.296	4.9758	61.096	63.198	-338.02	1023.5	105.39	-101.7	189.58	31.78	34.166	55.222	101.44	-188.47	48.989	20.097	-287.39	1017.5	-243.92	-489.8	38.729	-65.975	-169.62	807.8	-310.43	-120.44	100.88	2.3071	-154.48	84.561	75.641	-49.41	32.969	120.55
354	1.77	-188.48	1344.8	-65.08	-157.08	955.14	83.371	-240.47	1353.8	109.64	-286.27	1145.3	168.87	-279.06	896.6	204.91	-323.7	792.56	222.26	-251.77	1362	-232.67	-166.02	929.22	-299.42	-103.71	783.75	-292.39	-138.03	588.47	105.49	-113.31	707.83	101.1	-278.3	634.74	-187.69	-290.11	439.38	-153.01	-291.71	338.62	-70.371	-364.75	165.45	-69.775	-113.2	1120.6	-63.807	-326.54	249.54	-73.676	-167.22	936.14	-185.83	-320.53	1042.7	188.93	-211.92	760.2	139.59	-114.64	492.81	96.381	-205.78	638.69	-161.22	-275.91	548.05	-168.14	-244.9	28.183	-107.41	-277.26	729.98	-208.41	-122.71	824.07	-250.96	-358.21	1315.8	34.61	-313.74	1421.4	-59.203	-284.66	744.31	220.54	-342.21	256.3	-143.86	-292.87	37.993	-77.477	-174.64	673.99	122.88	-143.07	1586.4	-86.62	-270.64	788.5	170.63	-419.54	76.833	-36.923	-344.56	1136.9	-58.234	-331.42	22.314	-156.2	-139.35	1587.3	-13.483	-434.89	67.701	-119.19	-311.96	1550	15.172	-372.34	981.92	18.909	-377.68	977.91	-94.97	-249.43	1155.6	-287.78	-103.05	285.49	99.023	-312.24	1559.4	-112.01	-78.702	279.65	32.836	-249.7	1035.1	-305.26	-69.329	371.85	32.891	23.81	63.257	63.724	-332.98	1022.6	105.67	-87.143	188.53	32.274	53.133	58.252	101.95	-169.18	45.159	20.245	-280.55	1016.7	-243.87	-489.69	39.386	-65.858	-160.56	808.12	-309.99	-102.83	99.274	2.6654	-136.42	81.736	75.922	-29.805	33.469	121.06
355	1.775	-182.96	1343.9	-64.679	-151.38	953.84	83.532	-234.94	1352.7	110.09	-281.14	1144.3	169.22	-274.74	895.62	205.5	-319.86	791.77	222.87	-246.35	1361.3	-232.24	-158.38	929.45	-299.48	-94.323	784.82	-292.19	-133.21	587.39	106.15	-108.3	706.65	101.18	-274.07	633.98	-187.46	-286.88	438.62	-152.77	-289.2	337.81	-70.171	-363.72	165.25	-69.654	-107.51	1119.7	-63.69	-324.79	249.02	-73.51	-162.25	934.98	-185.81	-315.58	1041.8	189.23	-206.49	759.43	140.12	-109.83	491.26	97.177	-201.54	637.66	-160.99	-272.03	547.27	-167.92	-244.8	28.083	-107.54	-272.68	729.22	-208.08	-113.56	825.07	-250.82	-352.67	1314.8	34.982	-308.26	1420.6	-58.674	-281.11	743.28	221.17	-340.35	255.9	-143.72	-292.83	37.982	-77.44	-169.5	673.05	123.6	-137.67	1585.6	-86.017	-266.76	787.42	171.3	-419.15	77.125	-36.818	-338.95	1136	-57.812	-331.44	22.319	-156.15	-133.93	1586.5	-12.878	-434.63	68.09	-119.13	-306.51	1549.1	15.818	-366.57	981.11	19.459	-372.18	977.15	-94.39	-243.78	1155	-287.67	-92.068	284.08	99.536	-306.84	1558.6	-111.38	-67.415	279.07	33.415	-243.18	1034.6	-305.24	-61.145	371.55	33.486	42.329	65.681	64.173	-327.9	1021.7	105.97	-72.78	187.69	32.773	71.772	61.579	102.36	-150.05	41.699	20.416	-273.71	1015.9	-243.76	-489.56	40.083	-65.738	-151.57	808.42	-309.53	-85.442	97.97	3.0316	-118.53	79.235	76.215	-10.452	34.266	121.51
356	1.78	-177.42	1343	-64.251	-145.64	952.48	83.726	-229.38	1351.7	110.57	-275.95	1143.4	169.59	-270.33	894.64	206.09	-315.92	790.96	223.49	-240.91	1360.6	-231.79	-150.78	929.66	-299.51	-85.028	785.86	-292.01	-128.54	586.18	106.92	-103.39	705.3	101.28	-269.83	633.22	-187.22	-283.63	437.86	-152.54	-286.67	336.99	-69.991	-362.68	165.08	-69.548	-101.8	1118.7	-63.559	-323.01	248.5	-73.363	-157.26	933.84	-185.79	-310.59	1040.9	189.56	-201.1	758.58	140.64	-105.08	489.65	97.995	-197.27	636.62	-160.8	-268.13	546.49	-167.72	-244.7	27.989	-107.66	-268.1	728.46	-207.75	-104.49	826.05	-250.69	-347.1	1313.8	35.386	-302.75	1419.7	-58.12	-277.44	742.26	221.82	-338.48	255.52	-143.6	-292.79	37.973	-77.409	-164.46	672.01	124.35	-132.27	1584.8	-85.394	-262.78	786.34	171.98	-418.75	77.452	-36.726	-333.33	1135.1	-57.346	-331.46	22.323	-156.1	-128.51	1585.6	-12.253	-434.37	68.507	-119.09	-301.06	1548.1	16.486	-360.77	980.28	20.05	-366.66	976.35	-93.768	-238.14	1154.4	-287.52	-81.23	282.79	100.05	-301.44	1557.7	-110.72	-56.308	278.61	33.993	-236.68	1034	-305.17	-53.093	371.26	34.075	60.475	68.337	64.552	-322.78	1020.7	106.29	-58.648	187.06	33.275	90.026	65.166	102.67	-131.15	38.608	20.615	-266.88	1015.1	-243.59	-489.42	40.821	-65.618	-142.66	808.71	-309.05	-68.342	96.96	3.4069	-100.87	77.061	76.522	8.5833	35.339	121.89
